<?xml version="1.0" standalone="no"?>
<!DOCTYPE svg PUBLIC "-//W3C//DTD SVG 20010904//EN"
 "http://www.w3.org/TR/2001/REC-SVG-20010904/DTD/svg10.dtd">
<svg version="1.0" xmlns="http://www.w3.org/2000/svg"
 width="260.000000pt" height="260.000000pt" viewBox="0 0 260.000000 260.000000"
 preserveAspectRatio="xMidYMid meet">
<metadata>
Created by potrace 1.11, written by Peter Selinger 2001-2013
</metadata>
<g transform="translate(0.000000,260.000000) scale(0.100000,-0.100000)"
fill="#000000" stroke="none">
<path d="M456 2028 c-23 -24 -55 -61 -71 -82 -17 -21 -35 -44 -42 -51 -6 -6
-35 -41 -64 -76 -29 -35 -56 -66 -59 -69 -3 -3 -35 -41 -70 -85 -36 -44 -78
-95 -95 -113 -16 -19 -31 -38 -31 -43 -1 -5 -2 -10 -4 -11 -8 -11 -7 -45 2
-55 6 -7 7 -13 2 -13 -5 0 3 -8 16 -17 20 -15 54 -19 170 -23 l145 -5 1 -412
c1 -315 4 -416 13 -427 19 -23 1304 -23 1338 0 15 9 20 20 16 32 -5 14 -111
152 -133 172 -3 3 -27 31 -53 63 l-49 57 -393 0 c-366 0 -394 1 -399 18 -2 9
-4 125 -3 257 l2 240 147 5 c133 5 150 7 169 26 36 37 30 83 -22 145 -24 30
-51 63 -61 74 -9 11 -48 58 -88 105 -77 91 -81 96 -150 180 -24 30 -65 76 -91
103 -61 61 -87 62 -143 5z"/>
<path d="M882 2053 c-4 -10 -8 -22 -8 -28 1 -11 48 -75 81 -110 11 -12 29 -32
39 -46 11 -13 41 -50 69 -81 l49 -58 351 0 c194 1 370 1 393 0 l41 0 -1 -257
-1 -258 -148 -5 -149 -5 -23 -29 c-20 -25 -21 -33 -13 -64 6 -20 16 -41 22
-47 11 -9 38 -41 128 -150 286 -348 308 -372 343 -381 40 -10 61 10 243 227
287 341 281 333 277 376 -6 65 -26 73 -186 73 -76 0 -140 4 -143 9 -3 4 -6
190 -6 411 -1 246 -5 410 -11 421 -9 18 -38 19 -674 19 -623 0 -665 -1 -673
-17z"/>
</g>
</svg>
